<svg width="15" height="19" viewBox="0 0 15 19" fill="none" xmlns="http://www.w3.org/2000/svg">
<path d="M7.57288 0C5.87208 0 3.5232 0.502317 2.55126 0.920914C1.57933 1.33951 0.931374 1.75811 0.728909 2.80458L0 8.60603V16.6H1.25535V17.8536C1.25535 19.3821 3.41935 19.3821 3.41935 17.8536V16.6H7.41444H7.42712H11.5807V17.8536C11.5807 19.3821 13.7446 19.3821 13.7446 17.8536V16.6H15V8.60603L14.2711 2.80458C14.0686 1.75811 13.4207 1.33951 12.4487 0.920914C11.4768 0.502317 9.12792 0 7.42712 0" fill="#38B2AC"/>
<path d="M12.6621 14.094C13.2353 14.094 13.7001 13.6136 13.7001 13.021C13.7001 12.4285 13.2353 11.948 12.6621 11.948C12.0888 11.948 11.624 12.4285 11.624 13.021C11.624 13.6136 12.0888 14.094 12.6621 14.094Z" fill="white"/>
<path d="M2.33782 14.094C1.76456 14.094 1.2998 13.6136 1.2998 13.021C1.2998 12.4285 1.76456 11.948 2.33782 11.948C2.91108 11.948 3.37588 12.4285 3.37588 13.021C3.37588 13.6136 2.91108 14.094 2.33782 14.094Z" fill="white"/>
<path d="M7.41965 2.40692H4.41411C3.80663 2.40692 3.80663 1.46509 4.41411 1.46509H7.42704H10.5857C11.1932 1.46509 11.1932 2.40692 10.5857 2.40692H7.41965ZM7.41965 3.35784H2.77643C2.13472 3.35784 1.96707 3.69486 1.88916 4.20608L1.32182 8.41381C1.26892 8.81712 1.38178 9.21746 1.92085 9.21746H7.42704H13.079C13.6181 9.21746 13.7309 8.81712 13.678 8.41381L13.1107 4.20608C13.0328 3.69486 12.8651 3.35784 12.2234 3.35784H7.41965Z" fill="white"/>
</svg>
