<svg width="233" height="44" viewBox="0 0 233 44" fill="none" xmlns="http://www.w3.org/2000/svg">
<path opacity="0.4" d="M40.0756 12H43.4616C44.8639 12 46.0001 13.1459 46.0001 14.56V17.9745C46.0001 19.3886 44.8639 20.5345 43.4616 20.5345H40.0756C38.6734 20.5345 37.5371 19.3886 37.5371 17.9745V14.56C37.5371 13.1459 38.6734 12 40.0756 12" fill="#38B2AC"/>
<path fill-rule="evenodd" clip-rule="evenodd" d="M28.5385 12H31.9245C33.3268 12 34.463 13.1459 34.463 14.56V17.9745C34.463 19.3886 33.3268 20.5345 31.9245 20.5345H28.5385C27.1363 20.5345 26 19.3886 26 17.9745V14.56C26 13.1459 27.1363 12 28.5385 12ZM28.5385 23.4655H31.9245C33.3268 23.4655 34.463 24.6114 34.463 26.0255V29.44C34.463 30.8532 33.3268 32 31.9245 32H28.5385C27.1363 32 26 30.8532 26 29.44V26.0255C26 24.6114 27.1363 23.4655 28.5385 23.4655ZM43.4615 23.4655H40.0755C38.6732 23.4655 37.537 24.6114 37.537 26.0255V29.44C37.537 30.8532 38.6732 32 40.0755 32H43.4615C44.8637 32 46 30.8532 46 29.44V26.0255C46 24.6114 44.8637 23.4655 43.4615 23.4655Z" fill="#38B2AC"/>
<path d="M69.52 14.8C71.056 14.8 72.3307 15.3387 73.344 16.416C74.368 17.4933 74.88 18.8213 74.88 20.4C74.88 21.968 74.368 23.296 73.344 24.384C72.3307 25.4613 71.056 26 69.52 26H65.12V14.8H69.52ZM69.52 24.24C70.576 24.24 71.4347 23.8773 72.096 23.152C72.768 22.4267 73.104 21.5093 73.104 20.4C73.104 19.28 72.768 18.3627 72.096 17.648C71.4347 16.9227 70.576 16.56 69.52 16.56H66.96V24.24H69.52ZM82.7815 18H84.5095V26H82.7815V24.848C82.1308 25.7547 81.1975 26.208 79.9815 26.208C78.8828 26.208 77.9442 25.8027 77.1655 24.992C76.3868 24.1707 75.9975 23.1733 75.9975 22C75.9975 20.816 76.3868 19.8187 77.1655 19.008C77.9442 18.1973 78.8828 17.792 79.9815 17.792C81.1975 17.792 82.1308 18.24 82.7815 19.136V18ZM78.4455 23.84C78.9255 24.32 79.5282 24.56 80.2535 24.56C80.9788 24.56 81.5815 24.32 82.0615 23.84C82.5415 23.3493 82.7815 22.736 82.7815 22C82.7815 21.264 82.5415 20.656 82.0615 20.176C81.5815 19.6853 80.9788 19.44 80.2535 19.44C79.5282 19.44 78.9255 19.6853 78.4455 20.176C77.9655 20.656 77.7255 21.264 77.7255 22C77.7255 22.736 77.9655 23.3493 78.4455 23.84ZM88.0288 20.208C88.0288 20.4747 88.1728 20.688 88.4608 20.848C88.7594 20.9973 89.1168 21.1307 89.5328 21.248C89.9594 21.3547 90.3861 21.4827 90.8128 21.632C91.2394 21.7813 91.5968 22.0373 91.8848 22.4C92.1834 22.752 92.3328 23.2 92.3328 23.744C92.3328 24.512 92.0341 25.1147 91.4368 25.552C90.8501 25.9893 90.1088 26.208 89.2128 26.208C88.4234 26.208 87.7461 26.0427 87.1808 25.712C86.6154 25.3813 86.2048 24.9227 85.9488 24.336L87.4368 23.472C87.7141 24.24 88.3061 24.624 89.2128 24.624C90.1194 24.624 90.5728 24.3253 90.5728 23.728C90.5728 23.472 90.4234 23.264 90.1248 23.104C89.8368 22.944 89.4794 22.8107 89.0528 22.704C88.6368 22.5867 88.2154 22.4533 87.7888 22.304C87.3621 22.1547 86.9994 21.9093 86.7008 21.568C86.4128 21.216 86.2688 20.7733 86.2688 20.24C86.2688 19.504 86.5461 18.912 87.1008 18.464C87.6661 18.016 88.3648 17.792 89.1968 17.792C89.8581 17.792 90.4448 17.9413 90.9568 18.24C91.4794 18.528 91.8794 18.9333 92.1568 19.456L90.7008 20.272C90.4234 19.664 89.9221 19.36 89.1968 19.36C88.8661 19.36 88.5888 19.4347 88.3648 19.584C88.1408 19.7227 88.0288 19.9307 88.0288 20.208ZM97.966 17.792C98.8833 17.792 99.6247 18.0853 100.19 18.672C100.755 19.2587 101.038 20.064 101.038 21.088V26H99.31V21.264C99.31 20.6667 99.15 20.208 98.83 19.888C98.51 19.568 98.0727 19.408 97.518 19.408C96.91 19.408 96.4193 19.6 96.046 19.984C95.6727 20.3573 95.486 20.9333 95.486 21.712V26H93.758V14.8H95.486V19.024C96.0087 18.2027 96.8353 17.792 97.966 17.792ZM107.427 17.792C108.525 17.792 109.464 18.1973 110.243 19.008C111.021 19.8187 111.411 20.816 111.411 22C111.411 23.1733 111.021 24.1707 110.243 24.992C109.464 25.8027 108.525 26.208 107.427 26.208C106.211 26.208 105.277 25.7547 104.627 24.848V26H102.899V14.8H104.627V19.136C105.277 18.24 106.211 17.792 107.427 17.792ZM105.347 23.84C105.827 24.32 106.429 24.56 107.155 24.56C107.88 24.56 108.483 24.32 108.963 23.84C109.443 23.3493 109.683 22.736 109.683 22C109.683 21.264 109.443 20.656 108.963 20.176C108.483 19.6853 107.88 19.44 107.155 19.44C106.429 19.44 105.827 19.6853 105.347 20.176C104.867 20.656 104.627 21.264 104.627 22C104.627 22.736 104.867 23.3493 105.347 23.84ZM116.753 26.208C115.579 26.208 114.582 25.8027 113.761 24.992C112.939 24.1813 112.529 23.184 112.529 22C112.529 20.816 112.939 19.8187 113.761 19.008C114.582 18.1973 115.579 17.792 116.753 17.792C117.937 17.792 118.934 18.1973 119.745 19.008C120.566 19.8187 120.977 20.816 120.977 22C120.977 23.184 120.566 24.1813 119.745 24.992C118.934 25.8027 117.937 26.208 116.753 26.208ZM114.977 23.808C115.457 24.288 116.049 24.528 116.753 24.528C117.457 24.528 118.049 24.288 118.529 23.808C119.009 23.328 119.249 22.7253 119.249 22C119.249 21.2747 119.009 20.672 118.529 20.192C118.049 19.712 117.457 19.472 116.753 19.472C116.049 19.472 115.457 19.712 114.977 20.192C114.497 20.672 114.257 21.2747 114.257 22C114.257 22.7253 114.497 23.328 114.977 23.808ZM128.875 18H130.603V26H128.875V24.848C128.225 25.7547 127.291 26.208 126.075 26.208C124.977 26.208 124.038 25.8027 123.259 24.992C122.481 24.1707 122.091 23.1733 122.091 22C122.091 20.816 122.481 19.8187 123.259 19.008C124.038 18.1973 124.977 17.792 126.075 17.792C127.291 17.792 128.225 18.24 128.875 19.136V18ZM124.539 23.84C125.019 24.32 125.622 24.56 126.347 24.56C127.073 24.56 127.675 24.32 128.155 23.84C128.635 23.3493 128.875 22.736 128.875 22C128.875 21.264 128.635 20.656 128.155 20.176C127.675 19.6853 127.073 19.44 126.347 19.44C125.622 19.44 125.019 19.6853 124.539 20.176C124.059 20.656 123.819 21.264 123.819 22C123.819 22.736 124.059 23.3493 124.539 23.84ZM134.345 19.344C134.783 18.352 135.604 17.856 136.809 17.856V19.728C136.148 19.6853 135.572 19.8453 135.081 20.208C134.591 20.56 134.345 21.1467 134.345 21.968V26H132.617V18H134.345V19.344ZM144.047 14.8H145.775V26H144.047V24.848C143.396 25.7547 142.463 26.208 141.247 26.208C140.148 26.208 139.21 25.8027 138.431 24.992C137.652 24.1707 137.263 23.1733 137.263 22C137.263 20.816 137.652 19.8187 138.431 19.008C139.21 18.1973 140.148 17.792 141.247 17.792C142.463 17.792 143.396 18.24 144.047 19.136V14.8ZM139.711 23.84C140.191 24.32 140.794 24.56 141.519 24.56C142.244 24.56 142.847 24.32 143.327 23.84C143.807 23.3493 144.047 22.736 144.047 22C144.047 21.264 143.807 20.656 143.327 20.176C142.847 19.6853 142.244 19.44 141.519 19.44C140.794 19.44 140.191 19.6853 139.711 20.176C139.231 20.656 138.991 21.264 138.991 22C138.991 22.736 139.231 23.3493 139.711 23.84Z" fill="#38B2AC"/>
</svg>
