<svg width="257" height="76" viewBox="0 0 257 76" fill="none" xmlns="http://www.w3.org/2000/svg">
<rect x="24.2427" y="47.2429" width="28" height="4" rx="2" transform="rotate(-45 24.2427 47.2429)" fill="#38B2AC"/>
<rect x="32.728" y="55.7283" width="28" height="4" rx="2" transform="rotate(-45 32.728 55.7283)" fill="#38B2AC"/>
<rect x="35.5366" y="44.3945" width="16" height="4" rx="2" transform="rotate(45 35.5366 44.3945)" fill="#38B2AC"/>
<rect x="35.5562" y="27.4438" width="28" height="4" rx="2" transform="rotate(45 35.5562 27.4438)" fill="#38B2AC"/>
<path d="M89.372 51.364C87.2627 51.364 85.4987 50.6547 84.08 49.236C82.68 47.8173 81.98 46.072 81.98 44C81.98 41.9093 82.68 40.164 84.08 38.764C85.4987 37.3453 87.2627 36.636 89.372 36.636C90.7347 36.636 91.976 36.9627 93.096 37.616C94.216 38.2693 95.056 39.1467 95.616 40.248L93.012 41.76C92.6947 41.088 92.2093 40.5653 91.556 40.192C90.9213 39.8 90.184 39.604 89.344 39.604C88.112 39.604 87.076 40.024 86.236 40.864C85.4147 41.704 85.004 42.7493 85.004 44C85.004 45.2507 85.4147 46.296 86.236 47.136C87.076 47.976 88.112 48.396 89.344 48.396C90.1653 48.396 90.9027 48.2 91.556 47.808C92.228 47.416 92.732 46.8933 93.068 46.24L95.672 47.724C95.0747 48.844 94.216 49.7307 93.096 50.384C91.976 51.0373 90.7347 51.364 89.372 51.364ZM104.247 51.364C102.194 51.364 100.448 50.6547 99.011 49.236C97.5737 47.8173 96.855 46.072 96.855 44C96.855 41.928 97.5737 40.1827 99.011 38.764C100.448 37.3453 102.194 36.636 104.247 36.636C106.319 36.636 108.064 37.3453 109.483 38.764C110.92 40.1827 111.639 41.928 111.639 44C111.639 46.072 110.92 47.8173 109.483 49.236C108.064 50.6547 106.319 51.364 104.247 51.364ZM101.139 47.164C101.979 48.004 103.015 48.424 104.247 48.424C105.479 48.424 106.515 48.004 107.355 47.164C108.195 46.324 108.615 45.2693 108.615 44C108.615 42.7307 108.195 41.676 107.355 40.836C106.515 39.996 105.479 39.576 104.247 39.576C103.015 39.576 101.979 39.996 101.139 40.836C100.299 41.676 99.879 42.7307 99.879 44C99.879 45.2693 100.299 46.324 101.139 47.164ZM128.917 33.668C126.715 33.4627 125.613 34.3867 125.613 36.44V37H128.917V39.912H125.613V51H122.589V39.912H117.913V51H114.889V39.912H112.761V37H114.889V36.72C114.889 34.7973 115.421 33.3413 116.485 32.352C117.568 31.344 119.145 30.9053 121.217 31.036V33.948C119.015 33.7427 117.913 34.6667 117.913 36.72V37H122.589V36.44C122.589 34.5173 123.121 33.0613 124.185 32.072C125.268 31.064 126.845 30.6253 128.917 30.756V33.668ZM132.394 45.288C132.618 46.352 133.131 47.1733 133.934 47.752C134.737 48.312 135.717 48.592 136.874 48.592C138.479 48.592 139.683 48.0133 140.486 46.856L142.978 48.312C141.597 50.3467 139.553 51.364 136.846 51.364C134.569 51.364 132.73 50.6733 131.33 49.292C129.93 47.892 129.23 46.128 129.23 44C129.23 41.9093 129.921 40.164 131.302 38.764C132.683 37.3453 134.457 36.636 136.622 36.636C138.675 36.636 140.355 37.3547 141.662 38.792C142.987 40.2293 143.65 41.9747 143.65 44.028C143.65 44.3453 143.613 44.7653 143.538 45.288H132.394ZM132.366 42.824H140.598C140.393 41.6853 139.917 40.8267 139.17 40.248C138.442 39.6693 137.583 39.38 136.594 39.38C135.474 39.38 134.541 39.688 133.794 40.304C133.047 40.92 132.571 41.76 132.366 42.824ZM148.609 45.288C148.833 46.352 149.346 47.1733 150.149 47.752C150.952 48.312 151.932 48.592 153.089 48.592C154.694 48.592 155.898 48.0133 156.701 46.856L159.193 48.312C157.812 50.3467 155.768 51.364 153.061 51.364C150.784 51.364 148.945 50.6733 147.545 49.292C146.145 47.892 145.445 46.128 145.445 44C145.445 41.9093 146.136 40.164 147.517 38.764C148.898 37.3453 150.672 36.636 152.837 36.636C154.89 36.636 156.57 37.3547 157.877 38.792C159.202 40.2293 159.865 41.9747 159.865 44.028C159.865 44.3453 159.828 44.7653 159.753 45.288H148.609ZM148.581 42.824H156.813C156.608 41.6853 156.132 40.8267 155.385 40.248C154.657 39.6693 153.798 39.38 152.809 39.38C151.689 39.38 150.756 39.688 150.009 40.304C149.262 40.92 148.786 41.76 148.581 42.824ZM178.962 37H181.986V51H178.962V49.208C178.047 50.6453 176.6 51.364 174.622 51.364C173.016 51.364 171.719 50.8507 170.73 49.824C169.74 48.7973 169.246 47.388 169.246 45.596V37H172.27V45.288C172.27 46.3333 172.55 47.136 173.11 47.696C173.67 48.256 174.435 48.536 175.406 48.536C176.47 48.536 177.328 48.2093 177.982 47.556C178.635 46.884 178.962 45.8667 178.962 44.504V37ZM188.378 34.34C188.004 34.7133 187.556 34.9 187.034 34.9C186.511 34.9 186.054 34.7133 185.662 34.34C185.288 33.948 185.102 33.4907 185.102 32.968C185.102 32.4453 185.288 31.9973 185.662 31.624C186.035 31.232 186.492 31.036 187.034 31.036C187.575 31.036 188.032 31.232 188.406 31.624C188.779 31.9973 188.966 32.4453 188.966 32.968C188.966 33.4907 188.77 33.948 188.378 34.34ZM185.522 51V37H188.546V51H185.522Z" fill="#232D42"/>
</svg>
