<svg width="18" height="18" viewBox="0 0 18 18" fill="none" xmlns="http://www.w3.org/2000/svg">
<g clip-path="url(#clip0_111:1709)">
<path d="M6.2175 4.66495C6.25115 4.72023 6.29854 4.76586 6.35505 4.7974C6.41157 4.82895 6.47528 4.84533 6.54 4.84495H6.6525C7.41306 4.61194 8.20456 4.49561 9 4.49995C9.74512 4.49284 10.4875 4.59131 11.205 4.79245C11.2936 4.81785 11.3885 4.80972 11.4715 4.7696C11.5545 4.72948 11.6198 4.66018 11.655 4.57495L11.9475 3.89995C12.3451 3.1495 12.6162 2.33862 12.75 1.49995C12.7633 1.29954 12.7335 1.0986 12.6629 0.910603C12.5922 0.722604 12.4821 0.551877 12.3401 0.409853C12.1981 0.26783 12.0273 0.157788 11.8393 0.0870952C11.6513 0.0164026 11.4504 -0.0133092 11.25 -5.08714e-05C11.0125 -0.0335663 10.7707 0.0170757 10.5666 0.143098C10.3625 0.269121 10.2089 0.462581 10.1325 0.689949C10.1301 0.709879 10.1301 0.730019 10.1325 0.749949C10.095 0.749949 10.065 0.749949 9.945 0.592449C9.79279 0.390394 9.59195 0.230116 9.36116 0.126524C9.13037 0.0229312 8.87713 -0.0206103 8.625 -5.08714e-05C7.62 -5.08714e-05 7.0725 0.997449 6.8625 1.49995C5.85 1.49995 5.25 1.94245 5.25 2.62495C5.35493 3.25955 5.6123 3.85921 6 4.37245L6.2175 4.66495ZM14.25 11.8874C14.25 7.89745 13.3125 5.24995 9 5.24995C4.6875 5.24995 3.75 7.89745 3.75 11.8874C3.45 12.3449 2.25 14.2499 2.25 15.7499C2.25 17.7074 6.48 17.9999 9 17.9999C11.52 17.9999 15.75 17.7074 15.75 15.7499C15.75 14.2499 14.55 12.3449 14.25 11.8874ZM9 11.2499C9.26383 11.252 9.51854 11.3467 9.71962 11.5175C9.9207 11.6883 10.0553 11.9244 10.1 12.1844C10.1447 12.4444 10.0966 12.7119 9.96404 12.94C9.83151 13.1682 9.62301 13.3425 9.375 13.4324V13.4999C9.375 13.5994 9.33549 13.6948 9.26517 13.7651C9.19484 13.8354 9.09946 13.8749 9 13.8749C8.90054 13.8749 8.80516 13.8354 8.73483 13.7651C8.66451 13.6948 8.625 13.5994 8.625 13.4999H8.25C8.15054 13.4999 8.05516 13.4604 7.98483 13.3901C7.91451 13.3198 7.875 13.2244 7.875 13.1249C7.875 13.0255 7.91451 12.9301 7.98483 12.8598C8.05516 12.7895 8.15054 12.7499 8.25 12.7499H9C9.09946 12.7499 9.19484 12.7104 9.26517 12.6401C9.33549 12.5698 9.375 12.4744 9.375 12.3749C9.375 12.2755 9.33549 12.1801 9.26517 12.1098C9.19484 12.0395 9.09946 11.9999 9 11.9999C8.73617 11.9979 8.48146 11.9032 8.28038 11.7324C8.0793 11.5616 7.94465 11.3255 7.89998 11.0655C7.8553 10.8055 7.90343 10.538 8.03596 10.3099C8.16849 10.0817 8.37699 9.90744 8.625 9.81745V9.74995C8.625 9.65049 8.66451 9.55511 8.73483 9.48478C8.80516 9.41446 8.90054 9.37495 9 9.37495C9.09946 9.37495 9.19484 9.41446 9.26517 9.48478C9.33549 9.55511 9.375 9.65049 9.375 9.74995H9.75C9.84946 9.74995 9.94484 9.78946 10.0152 9.85978C10.0855 9.93011 10.125 10.0255 10.125 10.1249C10.125 10.2244 10.0855 10.3198 10.0152 10.3901C9.94484 10.4604 9.84946 10.4999 9.75 10.4999H9C8.90054 10.4999 8.80516 10.5395 8.73483 10.6098C8.66451 10.6801 8.625 10.7755 8.625 10.8749C8.625 10.9744 8.66451 11.0698 8.73483 11.1401C8.80516 11.2104 8.90054 11.2499 9 11.2499Z" fill="#38B2AC"/>
</g>
<defs>
<clipPath id="clip0_111:1709">
<rect width="18" height="18" fill="white"/>
</clipPath>
</defs>
</svg>
