<svg width="233" height="44" viewBox="0 0 233 44" fill="none" xmlns="http://www.w3.org/2000/svg">
<path d="M67.968 26L64.08 14.8H66.096L69.072 23.776L72.064 14.8H74.064L70.176 26H67.968ZM76.4681 16.48C76.2548 16.6933 75.9988 16.8 75.7001 16.8C75.4015 16.8 75.1401 16.6933 74.9161 16.48C74.7028 16.256 74.5961 15.9947 74.5961 15.696C74.5961 15.3973 74.7028 15.1413 74.9161 14.928C75.1295 14.704 75.3908 14.592 75.7001 14.592C76.0095 14.592 76.2708 14.704 76.4841 14.928C76.6975 15.1413 76.8041 15.3973 76.8041 15.696C76.8041 15.9947 76.6921 16.256 76.4681 16.48ZM74.8361 26V18H76.5641V26H74.8361ZM79.9305 22.736C80.0585 23.344 80.3518 23.8133 80.8105 24.144C81.2692 24.464 81.8292 24.624 82.4905 24.624C83.4078 24.624 84.0958 24.2933 84.5545 23.632L85.9785 24.464C85.1892 25.6267 84.0212 26.208 82.4745 26.208C81.1732 26.208 80.1225 25.8133 79.3225 25.024C78.5225 24.224 78.1225 23.216 78.1225 22C78.1225 20.8053 78.5172 19.808 79.3065 19.008C80.0958 18.1973 81.1092 17.792 82.3465 17.792C83.5198 17.792 84.4798 18.2027 85.2265 19.024C85.9838 19.8453 86.3625 20.8427 86.3625 22.016C86.3625 22.1973 86.3412 22.4373 86.2985 22.736H79.9305ZM79.9145 21.328H84.6185C84.5012 20.6773 84.2292 20.1867 83.8025 19.856C83.3865 19.5253 82.8958 19.36 82.3305 19.36C81.6905 19.36 81.1572 19.536 80.7305 19.888C80.3038 20.24 80.0318 20.72 79.9145 21.328ZM96.7865 18H98.6105L96.0985 26H94.4025L92.7385 20.608L91.0585 26H89.3625L86.8505 18H88.6745L90.2265 23.52L91.9065 18H93.5545L95.2185 23.52L96.7865 18ZM110.379 26L108.011 21.92H105.835V26H103.995V14.8H108.475C109.478 14.8 110.326 15.152 111.019 15.856C111.723 16.5493 112.075 17.3973 112.075 18.4C112.075 19.1147 111.867 19.7707 111.451 20.368C111.046 20.9547 110.512 21.3813 109.851 21.648L112.395 26H110.379ZM105.835 16.528V20.272H108.475C108.966 20.272 109.382 20.0907 109.723 19.728C110.064 19.3653 110.235 18.9227 110.235 18.4C110.235 17.8773 110.064 17.4347 109.723 17.072C109.382 16.7093 108.966 16.528 108.475 16.528H105.835ZM114.634 22.736C114.762 23.344 115.055 23.8133 115.514 24.144C115.972 24.464 116.532 24.624 117.194 24.624C118.111 24.624 118.799 24.2933 119.258 23.632L120.682 24.464C119.892 25.6267 118.724 26.208 117.178 26.208C115.876 26.208 114.826 25.8133 114.026 25.024C113.226 24.224 112.826 23.216 112.826 22C112.826 20.8053 113.22 19.808 114.01 19.008C114.799 18.1973 115.812 17.792 117.05 17.792C118.223 17.792 119.183 18.2027 119.93 19.024C120.687 19.8453 121.066 20.8427 121.066 22.016C121.066 22.1973 121.044 22.4373 121.002 22.736H114.634ZM114.618 21.328H119.322C119.204 20.6773 118.932 20.1867 118.506 19.856C118.09 19.5253 117.599 19.36 117.034 19.36C116.394 19.36 115.86 19.536 115.434 19.888C115.007 20.24 114.735 20.72 114.618 21.328ZM127.114 17.792C128.213 17.792 129.151 18.2027 129.93 19.024C130.709 19.8347 131.098 20.8267 131.098 22C131.098 23.184 130.709 24.1813 129.93 24.992C129.151 25.8027 128.213 26.208 127.114 26.208C125.898 26.208 124.965 25.76 124.314 24.864V29.2H122.586V18H124.314V19.152C124.965 18.2453 125.898 17.792 127.114 17.792ZM125.034 23.84C125.514 24.32 126.117 24.56 126.842 24.56C127.567 24.56 128.17 24.32 128.65 23.84C129.13 23.3493 129.37 22.736 129.37 22C129.37 21.264 129.13 20.656 128.65 20.176C128.17 19.6853 127.567 19.44 126.842 19.44C126.117 19.44 125.514 19.6853 125.034 20.176C124.554 20.656 124.314 21.264 124.314 22C124.314 22.736 124.554 23.3493 125.034 23.84ZM136.44 26.208C135.267 26.208 134.27 25.8027 133.448 24.992C132.627 24.1813 132.216 23.184 132.216 22C132.216 20.816 132.627 19.8187 133.448 19.008C134.27 18.1973 135.267 17.792 136.44 17.792C137.624 17.792 138.622 18.1973 139.432 19.008C140.254 19.8187 140.664 20.816 140.664 22C140.664 23.184 140.254 24.1813 139.432 24.992C138.622 25.8027 137.624 26.208 136.44 26.208ZM134.664 23.808C135.144 24.288 135.736 24.528 136.44 24.528C137.144 24.528 137.736 24.288 138.216 23.808C138.696 23.328 138.936 22.7253 138.936 22C138.936 21.2747 138.696 20.672 138.216 20.192C137.736 19.712 137.144 19.472 136.44 19.472C135.736 19.472 135.144 19.712 134.664 20.192C134.184 20.672 133.944 21.2747 133.944 22C133.944 22.7253 134.184 23.328 134.664 23.808ZM143.955 19.344C144.392 18.352 145.213 17.856 146.419 17.856V19.728C145.757 19.6853 145.181 19.8453 144.691 20.208C144.2 20.56 143.955 21.1467 143.955 21.968V26H142.227V18H143.955V19.344ZM152.363 19.664H150.379V23.504C150.379 23.8347 150.453 24.0747 150.603 24.224C150.752 24.3627 150.971 24.4427 151.259 24.464C151.557 24.4747 151.925 24.4693 152.363 24.448V26C151.04 26.16 150.091 26.048 149.515 25.664C148.939 25.2693 148.651 24.5493 148.651 23.504V19.664H147.179V18H148.651V16.272L150.379 15.76V18H152.363V19.664ZM155.185 20.208C155.185 20.4747 155.329 20.688 155.617 20.848C155.916 20.9973 156.273 21.1307 156.689 21.248C157.116 21.3547 157.542 21.4827 157.969 21.632C158.396 21.7813 158.753 22.0373 159.041 22.4C159.34 22.752 159.489 23.2 159.489 23.744C159.489 24.512 159.19 25.1147 158.593 25.552C158.006 25.9893 157.265 26.208 156.369 26.208C155.58 26.208 154.902 26.0427 154.337 25.712C153.772 25.3813 153.361 24.9227 153.105 24.336L154.593 23.472C154.87 24.24 155.462 24.624 156.369 24.624C157.276 24.624 157.729 24.3253 157.729 23.728C157.729 23.472 157.58 23.264 157.281 23.104C156.993 22.944 156.636 22.8107 156.209 22.704C155.793 22.5867 155.372 22.4533 154.945 22.304C154.518 22.1547 154.156 21.9093 153.857 21.568C153.569 21.216 153.425 20.7733 153.425 20.24C153.425 19.504 153.702 18.912 154.257 18.464C154.822 18.016 155.521 17.792 156.353 17.792C157.014 17.792 157.601 17.9413 158.113 18.24C158.636 18.528 159.036 18.9333 159.313 19.456L157.857 20.272C157.58 19.664 157.078 19.36 156.353 19.36C156.022 19.36 155.745 19.4347 155.521 19.584C155.297 19.7227 155.185 19.9307 155.185 20.208Z" fill="#8A92A6"/>
<path fill-rule="evenodd" clip-rule="evenodd" d="M44.2402 10.2133C44.2402 8.44 45.6802 7 47.4535 7C49.2268 7 50.6668 8.44 50.6668 10.2133C50.6668 11.9867 49.2268 13.4267 47.4535 13.4267C45.6802 13.4267 44.2402 11.9867 44.2402 10.2133ZM39.1066 24.0125L42.96 19.0405L42.9066 19.0671C43.12 18.7738 43.16 18.4005 43.0133 18.0671C42.868 17.7338 42.5466 17.5071 42.2013 17.4805C41.84 17.4405 41.4813 17.6005 41.2666 17.8938L38.0413 22.0671L34.3466 19.1605C34.12 18.9871 33.8533 18.9191 33.5866 18.9471C33.3213 18.9871 33.0813 19.1325 32.92 19.3458L28.9746 24.4805L28.8933 24.6005C28.6666 25.0258 28.7733 25.5725 29.1733 25.8671C29.36 25.9871 29.56 26.0671 29.7866 26.0671C30.0946 26.0805 30.3866 25.9191 30.5733 25.6671L33.92 21.3591L37.72 24.2138L37.84 24.2925C38.2666 24.5191 38.8 24.4138 39.1066 24.0125ZM41.9333 9.37372C41.88 9.70706 41.8533 10.0404 41.8533 10.3737C41.8533 13.3737 44.28 15.7991 47.2667 15.7991C47.6 15.7991 47.92 15.7604 48.2533 15.7071V26.4657C48.2533 30.9871 45.5867 33.6671 41.0533 33.6671H31.2013C26.6667 33.6671 24 30.9871 24 26.4657V16.6004C24 12.0671 26.6667 9.37372 31.2013 9.37372H41.9333Z" fill="#8A92A6"/>
</svg>
