<svg width="24" height="24" viewBox="0 0 24 24" fill="none" xmlns="http://www.w3.org/2000/svg">
<path d="M5.62633 2.24988C4.74632 2.24988 3.88217 2.53211 3.24752 3.15658C2.61287 3.78106 2.25 4.7117 2.25 5.82981C2.25 7.13454 2.98842 8.49559 3.66791 9.65437C4.3474 10.8131 5.02284 11.7212 5.02284 11.7212C5.09266 11.8144 5.1833 11.8901 5.28755 11.9423C5.3918 11.9944 5.5068 12.0216 5.6234 12.0216C5.74001 12.0216 5.855 11.9944 5.95926 11.9423C6.06351 11.8901 6.15415 11.8144 6.22396 11.7212C6.22396 11.7212 6.9067 10.8131 7.58621 9.65437C8.26573 8.49559 8.99827 7.13455 8.99827 5.82981C8.99827 4.7117 8.64125 3.78106 8.00661 3.15658C7.37196 2.5321 6.50634 2.24988 5.62633 2.24988ZM11.1749 2.2865C11.174 2.28699 11.173 2.28747 11.1721 2.28796C11.0142 2.30434 10.8656 2.37033 10.7477 2.47641C10.6297 2.58249 10.5486 2.7232 10.5159 2.87827L6.7675 20.8483C6.7448 20.9574 6.74679 21.0702 6.77333 21.1784C6.79986 21.2867 6.85027 21.3877 6.92087 21.474C6.99148 21.5603 7.08049 21.6298 7.18142 21.6774C7.28236 21.725 7.39266 21.7495 7.50428 21.7491H20.9964C21.1081 21.7495 21.2184 21.725 21.3193 21.6774C21.4202 21.6298 21.5092 21.5603 21.5798 21.474C21.6504 21.3877 21.7008 21.2867 21.7274 21.1784C21.7539 21.0702 21.7559 20.9574 21.7332 20.8483L17.9804 2.87827C17.9443 2.71142 17.8521 2.56191 17.7191 2.45455C17.5862 2.34718 17.4205 2.28841 17.2495 2.28796H11.2497C11.2249 2.28624 11.1999 2.28575 11.175 2.2865H11.1749ZM13.4966 3.78498H14.998V6.04514H13.4966V3.78498ZM5.62487 4.4412C5.77277 4.44113 5.91924 4.47025 6.0559 4.5269C6.19256 4.58355 6.31675 4.66662 6.42135 4.77136C6.52596 4.8761 6.60894 5.00046 6.66555 5.13734C6.72216 5.27422 6.75129 5.42093 6.75129 5.56909C6.75129 5.71725 6.72216 5.86395 6.66555 6.00083C6.60894 6.13771 6.52596 6.26207 6.42135 6.36681C6.31674 6.47155 6.19256 6.55462 6.0559 6.61127C5.91924 6.66792 5.77277 6.69704 5.62487 6.69697C5.32642 6.69673 5.04027 6.57779 4.82933 6.36629C4.61838 6.1548 4.4999 5.86806 4.49991 5.56909C4.4999 5.27012 4.61838 4.98337 4.82933 4.77188C5.04027 4.56038 5.32642 4.44144 5.62487 4.4412V4.4412ZM13.4966 7.52604H14.998V11.2671H13.4966V7.52604ZM13.4966 13.5112H14.998V18.7551H13.4966V13.5112Z" fill="#38B2AC"/>
</svg>
