<svg width="24" height="24" viewBox="0 0 24 24" fill="none" xmlns="http://www.w3.org/2000/svg">
<path d="M11.9952 1.50026C11.7881 1.5023 11.6218 1.67183 11.6238 1.87893C11.6238 3.3045 11.6238 4.73006 11.6238 6.15563L7.31416 8.68107C6.82491 8.91669 7.24884 9.63827 7.69283 9.32561L11.9812 6.81189L16.3077 9.32854C16.7433 9.58901 17.1283 8.92907 16.6872 8.67814L12.3738 6.17247V4.50545H14.6224C14.831 4.50636 15.0001 4.33684 14.9989 4.12824V2.2554C14.9997 2.04709 14.8307 1.87802 14.6224 1.87893H12.3738C12.3759 1.66896 12.2051 1.49822 11.9952 1.50026ZM11.9812 7.52162C11.9184 7.52499 11.8575 7.54415 11.804 7.57729L8.05466 9.87714C7.94495 9.94556 7.87824 10.0657 7.87814 10.195V22.1264C7.87889 22.3321 8.04527 22.4988 8.25095 22.4999H9.75025V19.1263C9.75025 17.8866 10.7602 16.8763 11.9996 16.8763C13.2389 16.8763 14.2496 17.8866 14.2496 19.1263V22.4999H15.7496C15.9553 22.4988 16.1217 22.3321 16.1224 22.1264V10.195C16.1215 10.065 16.0534 9.94467 15.9423 9.87714L12.1966 7.57729C12.1321 7.53737 12.057 7.51796 11.9812 7.52162H11.9812ZM11.9996 9.74676C13.2371 9.74676 14.2496 10.7596 14.2496 11.9975C14.2496 13.2354 13.2371 14.2468 11.9996 14.2469C10.762 14.2469 9.75025 13.2354 9.75025 11.9975C9.75025 10.7596 10.762 9.74676 11.9996 9.74676V9.74676ZM1.87949 9.75189C1.37871 9.75162 1.37871 10.5024 1.87949 10.5026H2.25596V11.2527H1.87949C1.67364 11.2535 1.50677 11.4203 1.50594 11.6262V22.1264C1.50677 22.3323 1.67364 22.4991 1.87949 22.4999H7.19917C7.15654 22.3831 7.12864 22.2592 7.12813 22.1293C7.12812 22.1284 7.12812 22.1273 7.12813 22.1264V11.2527H6.75165V10.5026H7.12812C7.62862 10.5026 7.62862 9.75189 7.12812 9.75189L1.87949 9.75189ZM16.8725 9.75189C16.3717 9.75162 16.3717 10.5024 16.8725 10.5026H17.246V11.2527H16.8725V22.1264V22.1294C16.8719 22.2593 16.844 22.3832 16.8014 22.5H22.1211C22.3269 22.4992 22.4938 22.3324 22.4946 22.1265V11.6262C22.4938 11.4203 22.3269 11.2535 22.1211 11.2526H21.7446V10.5026H22.1211C22.6216 10.5026 22.6216 9.75188 22.1211 9.75188L16.8725 9.75189ZM11.9996 10.4968C11.1671 10.4968 10.501 11.1649 10.501 11.9975C10.501 12.8302 11.1671 13.4968 11.9996 13.4968C12.832 13.4968 13.4996 12.8302 13.4996 11.9975C13.4996 11.1649 12.832 10.4968 11.9996 10.4968ZM3.00378 10.5026H4.13026V11.2526H3.00378L3.00378 10.5026ZM4.87808 10.5026H6.00164V11.2526H4.87808L4.87808 10.5026ZM17.9967 10.5026H19.1203V11.2526H17.9967V10.5026ZM19.8703 10.5026H20.9946V11.2526H19.8703V10.5026ZM11.9944 11.1501H11.9952C12.2052 11.1484 12.3756 11.3195 12.3731 11.5295V11.8452L12.7335 12.2019C13.1045 12.5564 12.5555 13.1046 12.2017 12.7329L11.7344 12.2634C11.6642 12.1936 11.6244 12.0988 11.6238 11.9997V11.5295C11.6213 11.3223 11.7873 11.1524 11.9944 11.1501V11.1501ZM2.6317 12.7527H3.38098C3.58683 12.7535 3.7537 12.9203 3.75452 13.1262V15.3763H2.25523V13.1262C2.25606 12.9192 2.42471 12.7519 2.6317 12.7527ZM5.25236 12.7527H6.02215C6.22799 12.7535 6.39413 12.9203 6.39496 13.1262V15.3763C6.37768 15.377 4.87881 15.3763 4.87881 15.3763V13.1262C4.87964 12.9203 5.04651 12.7535 5.25236 12.7527ZM17.9784 12.7527H18.7482C18.9541 12.7535 19.1209 12.9203 19.1218 13.1262V15.3763C19.1218 15.3763 17.6229 15.377 17.6056 15.3763V13.1262C17.6065 12.9203 17.7726 12.7535 17.9784 12.7527ZM20.6196 12.7527H21.3689C21.5759 12.7519 21.7445 12.9192 21.7454 13.1262V15.3763H20.2461V13.1262C20.2469 12.9203 20.4138 12.7535 20.6196 12.7527ZM2.25523 16.1263H3.75452V18.3763C3.7537 18.5822 3.58683 18.749 3.38098 18.7499H2.6317C2.42471 18.7507 2.25605 18.5834 2.25523 18.3763V16.1263ZM4.87881 16.1263H6.39496V18.3763C6.39413 18.5822 6.22799 18.749 6.02215 18.7499H5.25236C5.04651 18.749 4.87964 18.5822 4.87881 18.3763V16.1263ZM17.6056 16.1263H19.1218V18.3763C19.1209 18.5822 18.9541 18.749 18.7482 18.7499H17.9784C17.7726 18.749 17.6064 18.5822 17.6056 18.3763V16.1263ZM20.2461 16.1263H21.7454V18.3763C21.7445 18.5834 21.5759 18.7507 21.3689 18.7499H20.6196C20.4138 18.749 20.2469 18.5822 20.2461 18.3763V16.1263ZM11.9996 17.6263C11.1625 17.6263 10.501 18.2891 10.501 19.1263V22.4999H13.4996V19.1263C13.4996 18.2891 12.8366 17.6263 11.9996 17.6263V17.6263Z" fill="#38B2AC"/>
</svg>
