<svg width="105" height="46" viewBox="0 0 105 46" fill="none" xmlns="http://www.w3.org/2000/svg">
<path d="M9.468 21L8.586 18.462H3.222L2.34 21H0.09L4.662 8.4H7.146L11.7 21H9.468ZM3.906 16.518H7.902L5.904 10.83L3.906 16.518ZM19.8284 8.4H21.7724V21H19.8284V19.704C19.0964 20.724 18.0464 21.234 16.6784 21.234C15.4424 21.234 14.3864 20.778 13.5104 19.866C12.6344 18.942 12.1964 17.82 12.1964 16.5C12.1964 15.168 12.6344 14.046 13.5104 13.134C14.3864 12.222 15.4424 11.766 16.6784 11.766C18.0464 11.766 19.0964 12.27 19.8284 13.278V8.4ZM14.9504 18.57C15.4904 19.11 16.1684 19.38 16.9844 19.38C17.8004 19.38 18.4784 19.11 19.0184 18.57C19.5584 18.018 19.8284 17.328 19.8284 16.5C19.8284 15.672 19.5584 14.988 19.0184 14.448C18.4784 13.896 17.8004 13.62 16.9844 13.62C16.1684 13.62 15.4904 13.896 14.9504 14.448C14.4104 14.988 14.1404 15.672 14.1404 16.5C14.1404 17.328 14.4104 18.018 14.9504 18.57ZM33.8663 11.766C34.8863 11.766 35.7083 12.096 36.3323 12.756C36.9563 13.416 37.2683 14.304 37.2683 15.42V21H35.3243V15.546C35.3243 14.922 35.1683 14.442 34.8563 14.106C34.5443 13.758 34.1183 13.584 33.5783 13.584C32.9783 13.584 32.4983 13.782 32.1383 14.178C31.7903 14.574 31.6163 15.168 31.6163 15.96V21H29.6723V15.546C29.6723 14.922 29.5223 14.442 29.2223 14.106C28.9343 13.758 28.5203 13.584 27.9803 13.584C27.3923 13.584 26.9123 13.788 26.5403 14.196C26.1683 14.592 25.9823 15.18 25.9823 15.96V21H24.0383V12H25.9823V13.08C26.5583 12.204 27.4163 11.766 28.5563 11.766C29.7083 11.766 30.5603 12.24 31.1123 13.188C31.7123 12.24 32.6303 11.766 33.8663 11.766ZM41.1848 10.29C40.9448 10.53 40.6568 10.65 40.3208 10.65C39.9848 10.65 39.6908 10.53 39.4388 10.29C39.1988 10.038 39.0788 9.744 39.0788 9.408C39.0788 9.072 39.1988 8.784 39.4388 8.544C39.6788 8.292 39.9728 8.166 40.3208 8.166C40.6688 8.166 40.9628 8.292 41.2028 8.544C41.4428 8.784 41.5628 9.072 41.5628 9.408C41.5628 9.744 41.4368 10.038 41.1848 10.29ZM39.3488 21V12H41.2928V21H39.3488ZM48.284 11.766C49.316 11.766 50.15 12.096 50.786 12.756C51.422 13.416 51.74 14.322 51.74 15.474V21H49.796V15.672C49.796 15 49.616 14.484 49.256 14.124C48.896 13.764 48.404 13.584 47.78 13.584C47.096 13.584 46.544 13.8 46.124 14.232C45.704 14.652 45.494 15.3 45.494 16.176V21H43.55V12H45.494V13.152C46.082 12.228 47.012 11.766 48.284 11.766ZM63.4272 11.766C64.6632 11.766 65.7192 12.228 66.5952 13.152C67.4712 14.064 67.9092 15.18 67.9092 16.5C67.9092 17.832 67.4712 18.954 66.5952 19.866C65.7192 20.778 64.6632 21.234 63.4272 21.234C62.0592 21.234 61.0092 20.73 60.2772 19.722V24.6H58.3332V12H60.2772V13.296C61.0092 12.276 62.0592 11.766 63.4272 11.766ZM61.0872 18.57C61.6272 19.11 62.3052 19.38 63.1212 19.38C63.9372 19.38 64.6152 19.11 65.1552 18.57C65.6952 18.018 65.9652 17.328 65.9652 16.5C65.9652 15.672 65.6952 14.988 65.1552 14.448C64.6152 13.896 63.9372 13.62 63.1212 13.62C62.3052 13.62 61.6272 13.896 61.0872 14.448C60.5472 14.988 60.2772 15.672 60.2772 16.5C60.2772 17.328 60.5472 18.018 61.0872 18.57ZM76.7991 12H78.7431V21H76.7991V19.704C76.0671 20.724 75.0171 21.234 73.6491 21.234C72.4131 21.234 71.3571 20.778 70.4811 19.866C69.6051 18.942 69.1671 17.82 69.1671 16.5C69.1671 15.168 69.6051 14.046 70.4811 13.134C71.3571 12.222 72.4131 11.766 73.6491 11.766C75.0171 11.766 76.0671 12.27 76.7991 13.278V12ZM71.9211 18.57C72.4611 19.11 73.1391 19.38 73.9551 19.38C74.7711 19.38 75.4491 19.11 75.9891 18.57C76.5291 18.018 76.7991 17.328 76.7991 16.5C76.7991 15.672 76.5291 14.988 75.9891 14.448C75.4491 13.896 74.7711 13.62 73.9551 13.62C73.1391 13.62 72.4611 13.896 71.9211 14.448C71.3811 14.988 71.1111 15.672 71.1111 16.5C71.1111 17.328 71.3811 18.018 71.9211 18.57ZM85.743 11.766C86.775 11.766 87.609 12.096 88.245 12.756C88.881 13.416 89.199 14.322 89.199 15.474V21H87.255V15.672C87.255 15 87.075 14.484 86.715 14.124C86.355 13.764 85.863 13.584 85.239 13.584C84.555 13.584 84.003 13.8 83.583 14.232C83.163 14.652 82.953 15.3 82.953 16.176V21H81.009V12H82.953V13.152C83.541 12.228 84.471 11.766 85.743 11.766ZM92.8222 17.328C92.9662 18.012 93.2962 18.54 93.8122 18.912C94.3282 19.272 94.9582 19.452 95.7022 19.452C96.7342 19.452 97.5082 19.08 98.0242 18.336L99.6262 19.272C98.7382 20.58 97.4242 21.234 95.6842 21.234C94.2202 21.234 93.0382 20.79 92.1382 19.902C91.2382 19.002 90.7882 17.868 90.7882 16.5C90.7882 15.156 91.2322 14.034 92.1202 13.134C93.0082 12.222 94.1482 11.766 95.5402 11.766C96.8602 11.766 97.9402 12.228 98.7802 13.152C99.6322 14.076 100.058 15.198 100.058 16.518C100.058 16.722 100.034 16.992 99.9862 17.328H92.8222ZM92.8042 15.744H98.0962C97.9642 15.012 97.6582 14.46 97.1782 14.088C96.7102 13.716 96.1582 13.53 95.5222 13.53C94.8022 13.53 94.2022 13.728 93.7222 14.124C93.2422 14.52 92.9362 15.06 92.8042 15.744ZM101.769 21V7.86H103.713V21H101.769Z" fill="black"/>
<path d="M67.614 37.182C66.1393 37.182 64.9167 36.6967 63.946 35.726C62.9753 34.746 62.49 33.5373 62.49 32.1C62.49 30.6627 62.9753 29.4587 63.946 28.488C64.9167 27.508 66.1393 27.018 67.614 27.018C68.5007 27.018 69.3173 27.228 70.064 27.648C70.82 28.068 71.408 28.6373 71.828 29.356L70.428 30.168C70.1667 29.6827 69.784 29.3 69.28 29.02C68.7853 28.7307 68.23 28.586 67.614 28.586C66.5687 28.586 65.7193 28.9173 65.066 29.58C64.422 30.2427 64.1 31.0827 64.1 32.1C64.1 33.1173 64.422 33.9573 65.066 34.62C65.7193 35.2827 66.5687 35.614 67.614 35.614C68.23 35.614 68.79 35.474 69.294 35.194C69.798 34.9047 70.176 34.5173 70.428 34.032L71.828 34.83C71.4173 35.5487 70.834 36.1227 70.078 36.552C69.3313 36.972 68.51 37.182 67.614 37.182ZM76.3579 37.182C75.3312 37.182 74.4585 36.8273 73.7399 36.118C73.0212 35.4087 72.6619 34.536 72.6619 33.5C72.6619 32.464 73.0212 31.5913 73.7399 30.882C74.4585 30.1727 75.3312 29.818 76.3579 29.818C77.3939 29.818 78.2665 30.1727 78.9759 30.882C79.6945 31.5913 80.0539 32.464 80.0539 33.5C80.0539 34.536 79.6945 35.4087 78.9759 36.118C78.2665 36.8273 77.3939 37.182 76.3579 37.182ZM74.8039 35.082C75.2239 35.502 75.7419 35.712 76.3579 35.712C76.9739 35.712 77.4919 35.502 77.9119 35.082C78.3319 34.662 78.5419 34.1347 78.5419 33.5C78.5419 32.8653 78.3319 32.338 77.9119 31.918C77.4919 31.498 76.9739 31.288 76.3579 31.288C75.7419 31.288 75.2239 31.498 74.8039 31.918C74.3839 32.338 74.1739 32.8653 74.1739 33.5C74.1739 34.1347 74.3839 34.662 74.8039 35.082ZM88.693 28.334C87.5916 28.2313 87.041 28.6933 87.041 29.72V30H88.693V31.456H87.041V37H85.529V31.456H83.191V37H81.679V31.456H80.615V30H81.679V29.86C81.679 28.8987 81.945 28.1707 82.477 27.676C83.0183 27.172 83.807 26.9527 84.843 27.018V28.474C83.7416 28.3713 83.191 28.8333 83.191 29.86V30H85.529V29.72C85.529 28.7587 85.795 28.0307 86.327 27.536C86.8683 27.032 87.657 26.8127 88.693 26.878V28.334ZM90.4314 34.144C90.5434 34.676 90.8 35.0867 91.2014 35.376C91.6027 35.656 92.0927 35.796 92.6714 35.796C93.474 35.796 94.076 35.5067 94.4774 34.928L95.7234 35.656C95.0327 36.6733 94.0107 37.182 92.6574 37.182C91.5187 37.182 90.5994 36.8367 89.8994 36.146C89.1994 35.446 88.8494 34.564 88.8494 33.5C88.8494 32.4547 89.1947 31.582 89.8854 30.882C90.576 30.1727 91.4627 29.818 92.5454 29.818C93.572 29.818 94.412 30.1773 95.0654 30.896C95.728 31.6147 96.0594 32.4873 96.0594 33.514C96.0594 33.6727 96.0407 33.8827 96.0034 34.144H90.4314ZM90.4174 32.912H94.5334C94.4307 32.3427 94.1927 31.9133 93.8194 31.624C93.4554 31.3347 93.026 31.19 92.5314 31.19C91.9714 31.19 91.5047 31.344 91.1314 31.652C90.758 31.96 90.52 32.38 90.4174 32.912ZM98.5388 34.144C98.6508 34.676 98.9075 35.0867 99.3088 35.376C99.7101 35.656 100.2 35.796 100.779 35.796C101.581 35.796 102.183 35.5067 102.585 34.928L103.831 35.656C103.14 36.6733 102.118 37.182 100.765 37.182C99.6261 37.182 98.7068 36.8367 98.0068 36.146C97.3068 35.446 96.9568 34.564 96.9568 33.5C96.9568 32.4547 97.3021 31.582 97.9928 30.882C98.6835 30.1727 99.5701 29.818 100.653 29.818C101.679 29.818 102.519 30.1773 103.173 30.896C103.835 31.6147 104.167 32.4873 104.167 33.514C104.167 33.6727 104.148 33.8827 104.111 34.144H98.5388ZM98.5248 32.912H102.641C102.538 32.3427 102.3 31.9133 101.927 31.624C101.563 31.3347 101.133 31.19 100.639 31.19C100.079 31.19 99.6121 31.344 99.2388 31.652C98.8655 31.96 98.6275 32.38 98.5248 32.912Z" fill="black" fill-opacity="0.5"/>
</svg>
