<svg width="28" height="34" viewBox="0 0 28 34" fill="none" xmlns="http://www.w3.org/2000/svg">
<path d="M16.4578 25.6114C17.653 25.9247 18.6197 26.4547 19.1983 27.1138C19.7769 27.7729 19.9327 28.5217 19.6401 29.2366C19.3474 29.9514 18.6238 30.5895 17.5887 31.0455C16.5536 31.5015 15.269 31.7481 13.9471 31.7445C12.6251 31.741 11.3449 31.4875 10.3179 31.0259C9.29091 30.5643 8.57854 29.9223 8.2985 29.2059C8.01842 28.4895 8.18739 27.7416 8.77753 27.0856C9.36767 26.4296 10.3437 25.9049 11.5443 25.5981L12.1246 26.2964C11.2105 26.53 10.4675 26.9294 10.0182 27.4288C9.569 27.9282 9.44032 28.4976 9.65354 29.043C9.86677 29.5884 10.4091 30.0772 11.1909 30.4286C11.9728 30.78 12.9474 30.9729 13.9538 30.9757C14.9602 30.9784 15.9382 30.7907 16.7262 30.4435C17.5142 30.0964 18.0651 29.6106 18.2879 29.0664C18.5107 28.5221 18.3921 27.9521 17.9516 27.4503C17.5111 26.9485 16.7752 26.545 15.8653 26.3065L16.4578 25.6114Z" fill="#38B2AC"/>
<path d="M2.33228 11.8374C2.33199 9.79449 3.01143 7.83724 4.21772 6.40604C5.42406 4.9748 7.05587 4.18979 8.74614 4.22763C10.7488 4.21478 12.6597 5.2411 13.9938 7.04603C15.3279 5.2411 17.2389 4.21478 19.2415 4.22763C20.9318 4.18979 22.5636 4.9748 23.7699 6.40604C24.9762 7.83724 25.6557 9.79449 25.6554 11.8374C25.6554 19.3851 18.2165 25.0839 13.9938 29.5934C9.78051 25.0459 2.33228 19.3907 2.33228 11.8374Z" fill="#38B2AC"/>
<path d="M10.4038 18.1529C10.4038 18.586 10.584 18.9747 10.8658 19.2454V19.8753C10.8658 20.2837 11.1754 20.6134 11.559 20.6134C11.9425 20.6134 12.252 20.2837 12.252 19.8753V19.6292H15.9485V19.8753C15.9485 20.2788 16.2581 20.6134 16.6416 20.6134C17.0205 20.6134 17.3347 20.2837 17.3347 19.8753V19.2454C17.6166 18.9747 17.7968 18.586 17.7968 18.1529V13.2318C17.7968 11.5095 16.1426 11.2634 14.1003 11.2634C12.058 11.2634 10.4038 11.5095 10.4038 13.2318V18.1529ZM12.021 18.645C11.6375 18.645 11.3279 18.3153 11.3279 17.9068C11.3279 17.4984 11.6375 17.1687 12.021 17.1687C12.4045 17.1687 12.7141 17.4984 12.7141 17.9068C12.7141 18.3153 12.4045 18.645 12.021 18.645ZM16.1796 18.645C15.7961 18.645 15.4865 18.3153 15.4865 17.9068C15.4865 17.4984 15.7961 17.1687 16.1796 17.1687C16.5631 17.1687 16.8727 17.4984 16.8727 17.9068C16.8727 18.3153 16.5631 18.645 16.1796 18.645ZM16.8727 15.6924H11.3279V13.2318H16.8727V15.6924Z" fill="white"/>
</svg>
